<mxfile host="app.diagrams.net" modified="2023-05-26T18:37:14.127Z" agent="Mozilla/5.0 (X11; Ubuntu; Linux x86_64; rv:109.0) Gecko/20100101 Firefox/113.0" etag="MA0aLg044_fjRMyBbCHz" version="21.3.3" type="device">
  <diagram name="Page-1" id="KUdxa5d0wEidY5RM9R6o">
    <mxGraphModel dx="989" dy="548" grid="1" gridSize="10" guides="1" tooltips="1" connect="1" arrows="1" fold="1" page="1" pageScale="1" pageWidth="850" pageHeight="1100" math="0" shadow="0">
      <root>
        <mxCell id="0" />
        <mxCell id="1" parent="0" />
        <mxCell id="uPhJUm74zsV95zfqLW2z-16" value="" style="verticalLabelPosition=bottom;verticalAlign=top;html=1;shape=mxgraph.basic.arc;startAngle=0.5822345854055692;endAngle=0.6626199351179021;direction=south;rotation=90;" parent="1" vertex="1">
          <mxGeometry x="190.38000000000002" y="293.5" width="166.21" height="186.6" as="geometry" />
        </mxCell>
        <mxCell id="2pZefH8dgBxviamgvMaA-6" value="" style="endArrow=classic;html=1;rounded=0;strokeColor=#FF3333;strokeWidth=2;" parent="1" edge="1">
          <mxGeometry width="50" height="50" relative="1" as="geometry">
            <mxPoint x="280" y="380" as="sourcePoint" />
            <mxPoint x="360" y="420" as="targetPoint" />
          </mxGeometry>
        </mxCell>
        <mxCell id="uPhJUm74zsV95zfqLW2z-1" value="" style="endArrow=classic;html=1;rounded=0;strokeWidth=3;" parent="1" target="uPhJUm74zsV95zfqLW2z-6" edge="1">
          <mxGeometry width="50" height="50" relative="1" as="geometry">
            <mxPoint x="280" y="380" as="sourcePoint" />
            <mxPoint x="470" y="480" as="targetPoint" />
          </mxGeometry>
        </mxCell>
        <mxCell id="uPhJUm74zsV95zfqLW2z-5" value="" style="endArrow=classic;html=1;rounded=0;strokeWidth=3;strokeColor=#FF0000;" parent="1" edge="1">
          <mxGeometry width="50" height="50" relative="1" as="geometry">
            <mxPoint x="280" y="381.7" as="sourcePoint" />
            <mxPoint x="340" y="280" as="targetPoint" />
          </mxGeometry>
        </mxCell>
        <mxCell id="uPhJUm74zsV95zfqLW2z-6" value="" style="ellipse;whiteSpace=wrap;html=1;aspect=fixed;fillColor=#330000;" parent="1" vertex="1">
          <mxGeometry x="480" y="250" width="40" height="40" as="geometry" />
        </mxCell>
        <mxCell id="uPhJUm74zsV95zfqLW2z-9" value="" style="endArrow=none;dashed=1;html=1;dashPattern=1 3;strokeWidth=2;rounded=0;exitX=0;exitY=0.75;exitDx=0;exitDy=0;" parent="1" edge="1" source="_PbjmO2EpilKhsKF8RGr-1">
          <mxGeometry width="50" height="50" relative="1" as="geometry">
            <mxPoint x="280" y="380" as="sourcePoint" />
            <mxPoint x="400" y="380" as="targetPoint" />
          </mxGeometry>
        </mxCell>
        <mxCell id="uPhJUm74zsV95zfqLW2z-18" value="&lt;font style=&quot;font-size: 20px;&quot;&gt;e&lt;/font&gt;" style="text;html=1;strokeColor=none;fillColor=none;align=center;verticalAlign=middle;whiteSpace=wrap;rounded=0;" parent="1" vertex="1">
          <mxGeometry x="335.75" y="305.2" width="20.84" height="20" as="geometry" />
        </mxCell>
        <mxCell id="2pZefH8dgBxviamgvMaA-2" value="&lt;font style=&quot;font-size: 18px;&quot;&gt;d&lt;/font&gt;" style="text;html=1;strokeColor=none;fillColor=none;align=center;verticalAlign=middle;whiteSpace=wrap;rounded=0;rotation=-30;" parent="1" vertex="1">
          <mxGeometry x="370" y="290" width="60" height="30" as="geometry" />
        </mxCell>
        <mxCell id="2pZefH8dgBxviamgvMaA-3" value="&lt;font style=&quot;font-size: 18px;&quot; color=&quot;#ffffff&quot;&gt;T&lt;/font&gt;" style="text;html=1;strokeColor=none;fillColor=none;align=center;verticalAlign=middle;whiteSpace=wrap;rounded=0;rotation=0;" parent="1" vertex="1">
          <mxGeometry x="470" y="255" width="60" height="30" as="geometry" />
        </mxCell>
        <mxCell id="2pZefH8dgBxviamgvMaA-10" value="" style="verticalLabelPosition=bottom;verticalAlign=top;html=1;shape=mxgraph.basic.arc;startAngle=0.28858664214293017;endAngle=0.3601581784484023;strokeWidth=2;fillColor=#FF0000;strokeColor=#FF0000;" parent="1" vertex="1">
          <mxGeometry x="211.05" y="325.2" width="158.95" height="134.8" as="geometry" />
        </mxCell>
        <mxCell id="_PbjmO2EpilKhsKF8RGr-1" value="" style="shape=image;verticalLabelPosition=bottom;labelBackgroundColor=default;verticalAlign=top;aspect=fixed;imageAspect=0;image=https://static.thenounproject.com/png/4594-200.png;rotation=30;" vertex="1" parent="1">
          <mxGeometry x="249.72" y="349.57" width="62.23" height="62.23" as="geometry" />
        </mxCell>
        <mxCell id="_PbjmO2EpilKhsKF8RGr-7" value="" style="endArrow=classic;html=1;rounded=0;exitX=0.978;exitY=0.651;exitDx=0;exitDy=0;exitPerimeter=0;fillColor=#e51400;strokeColor=#FF0000;strokeWidth=2;endSize=6;" edge="1" parent="1" source="2pZefH8dgBxviamgvMaA-10">
          <mxGeometry width="50" height="50" relative="1" as="geometry">
            <mxPoint x="320" y="440" as="sourcePoint" />
            <mxPoint x="370" y="400" as="targetPoint" />
          </mxGeometry>
        </mxCell>
        <mxCell id="_PbjmO2EpilKhsKF8RGr-9" value="" style="group" vertex="1" connectable="0" parent="1">
          <mxGeometry x="291.68" y="410" width="39.15999999999997" height="30" as="geometry" />
        </mxCell>
        <mxCell id="2pZefH8dgBxviamgvMaA-7" value="&lt;font style=&quot;font-size: 20px;&quot;&gt;Vs&lt;/font&gt;" style="text;html=1;strokeColor=none;fillColor=none;align=center;verticalAlign=middle;whiteSpace=wrap;rounded=0;" parent="_PbjmO2EpilKhsKF8RGr-9" vertex="1">
          <mxGeometry width="39.16" height="30" as="geometry" />
        </mxCell>
        <mxCell id="ydJF0RGZBB_oGP7RJGEj-3" value="" style="endArrow=classic;html=1;rounded=0;fontSize=7;" parent="_PbjmO2EpilKhsKF8RGr-9" edge="1">
          <mxGeometry width="50" height="50" relative="1" as="geometry">
            <mxPoint x="10.839999999999975" as="sourcePoint" />
            <mxPoint x="30.839999999999975" as="targetPoint" />
          </mxGeometry>
        </mxCell>
        <mxCell id="_PbjmO2EpilKhsKF8RGr-10" value="" style="group" vertex="1" connectable="0" parent="1">
          <mxGeometry x="360" y="430" width="26.589999999999975" height="25" as="geometry" />
        </mxCell>
        <mxCell id="2pZefH8dgBxviamgvMaA-11" value="&lt;font style=&quot;font-size: 20px;&quot;&gt;Va&lt;/font&gt;" style="text;html=1;strokeColor=none;fillColor=none;align=center;verticalAlign=middle;whiteSpace=wrap;rounded=0;" parent="_PbjmO2EpilKhsKF8RGr-10" vertex="1">
          <mxGeometry y="10" width="26.59" height="15" as="geometry" />
        </mxCell>
        <mxCell id="ydJF0RGZBB_oGP7RJGEj-4" value="" style="endArrow=classic;html=1;rounded=0;fontSize=7;" parent="_PbjmO2EpilKhsKF8RGr-10" edge="1">
          <mxGeometry width="50" height="50" relative="1" as="geometry">
            <mxPoint x="3.2900000000000773" as="sourcePoint" />
            <mxPoint x="23.290000000000077" as="targetPoint" />
          </mxGeometry>
        </mxCell>
        <mxCell id="_PbjmO2EpilKhsKF8RGr-14" value="" style="group" vertex="1" connectable="0" parent="1">
          <mxGeometry x="291.67999999999995" y="290" width="20" height="25" as="geometry" />
        </mxCell>
        <mxCell id="_PbjmO2EpilKhsKF8RGr-15" value="&lt;font style=&quot;font-size: 20px;&quot; color=&quot;#ffffff&quot;&gt;Vf&lt;/font&gt;" style="text;html=1;strokeColor=none;fillColor=none;align=center;verticalAlign=middle;whiteSpace=wrap;rounded=0;" vertex="1" parent="_PbjmO2EpilKhsKF8RGr-14">
          <mxGeometry y="10" width="20" height="15" as="geometry" />
        </mxCell>
        <mxCell id="_PbjmO2EpilKhsKF8RGr-16" value="" style="endArrow=classic;html=1;rounded=0;fontSize=7;" edge="1" parent="_PbjmO2EpilKhsKF8RGr-14">
          <mxGeometry width="50" height="50" relative="1" as="geometry">
            <mxPoint as="sourcePoint" />
            <mxPoint x="20" as="targetPoint" />
          </mxGeometry>
        </mxCell>
      </root>
    </mxGraphModel>
  </diagram>
</mxfile>
